<?xml version="1.0" encoding="UTF-8"?><svg id="uuid-f267b0c7-478a-4af9-b8e2-297e964a0158" xmlns="http://www.w3.org/2000/svg" viewBox="0 0 32 32"><path d="m24.25,27.33H6.83V4.64h9.61v6.73c0,.6.48,1.11,1.11,1.11h6.73v4.02h2.2v-5.9c0-.31-.11-.57-.31-.8l-7.18-7.04c-.2-.2-.48-.31-.77-.31H5.75c-.6,0-1.08.48-1.08,1.11v24.89c0,.6.48,1.11,1.08,1.11h19.61c.6,0,1.11-.48,1.11-1.11v-4.87h-2.2v3.76h-.03Zm-.77-17.08h-4.85v-4.76l4.85,4.76Z" fill="#fff" stroke-width="0"/><path d="m27.58,18.92h-9.61l1.88-1.88c.43-.43.43-1.11,0-1.54s-1.11-.43-1.54,0l-3.76,3.73c-.43.43-.43,1.11,0,1.54l3.76,3.76c.23.23.48.31.77.31s.57-.11.77-.31c.43-.43.43-1.11,0-1.54l-1.88-1.88h9.61c.6,0,1.11-.48,1.11-1.11s-.51-1.08-1.11-1.08Z" fill="#fff" stroke-width="0"/></svg>