<?xml version="1.0" encoding="UTF-8" standalone="no"?>
<!-- Uploaded to: SVG Repo, www.svgrepo.com, Generator: SVG Repo Mixer Tools -->

<svg
   fill="#000000"
   height="27.089048"
   width="21.017366"
   version="1.1"
   id="Capa_1"
   viewBox="0 0 1.5237591 1.9639561"
   xml:space="preserve"
   sodipodi:docname="pandora-json-icon.svg"
   inkscape:version="1.1.1 (3bf5ae0d25, 2021-09-20)"
   xmlns:inkscape="http://www.inkscape.org/namespaces/inkscape"
   xmlns:sodipodi="http://sodipodi.sourceforge.net/DTD/sodipodi-0.dtd"
   xmlns="http://www.w3.org/2000/svg"
   xmlns:svg="http://www.w3.org/2000/svg"><defs
   id="defs13" /><sodipodi:namedview
   id="namedview11"
   pagecolor="#505050"
   bordercolor="#eeeeee"
   borderopacity="1"
   inkscape:pageshadow="0"
   inkscape:pageopacity="0"
   inkscape:pagecheckerboard="0"
   showgrid="false"
   inkscape:zoom="5.0840978"
   inkscape:cx="21.439399"
   inkscape:cy="46.320903"
   inkscape:window-width="1271"
   inkscape:window-height="1011"
   inkscape:window-x="539"
   inkscape:window-y="310"
   inkscape:window-maximized="0"
   inkscape:current-layer="g8" />
<g
   id="g8"
   style="fill:#ffffff;fill-opacity:1"
   transform="matrix(0.10010818,0,0,0.10010818,-0.65070317,0)">
	<path
   d="m 15.685103,15.555312 c -0.07848,-0.104857 -0.168109,-0.180286 -0.26823,-0.226626 -0.100122,-0.04634 -0.205654,-0.06934 -0.316938,-0.06934 -0.113989,0 -0.222567,0.02131 -0.32607,0.06461 -0.103504,0.0433 -0.195845,0.116357 -0.277363,0.219523 -0.08152,0.103164 -0.145784,0.236434 -0.191786,0.400146 -0.04634,0.163373 -0.07103,0.363615 -0.07408,0.601065 0.003,0.231361 0.02706,0.428559 0.07171,0.591933 0.04465,0.163373 0.106209,0.296643 0.185021,0.400146 0.07881,0.103504 0.168109,0.178594 0.26823,0.226625 0.100121,0.04803 0.205655,0.07171 0.316938,0.07171 0.113989,0 0.222567,-0.02232 0.32607,-0.06697 0.103504,-0.04465 0.195846,-0.118049 0.277363,-0.219523 0.08152,-0.101474 0.145784,-0.235082 0.191786,-0.400147 0.04601,-0.165064 0.07103,-0.365983 0.07408,-0.603433 -0.003,-0.231361 -0.02706,-0.427882 -0.07171,-0.589564 -0.04465,-0.161682 -0.10621,-0.29529 -0.185021,-0.400147 z"
   id="path2"
   style="fill:#ffffff;fill-opacity:1;stroke-width:0.338247" />
	<path
   d="M 21.721124,13.19164 V 4.7280193 c 0,-0.2590974 -0.03112,-0.4508835 -0.186036,-0.606139 L 17.598906,0.18603596 C 17.480857,0.06798769 17.317146,0 17.149713,0 H 7.3331028 C 6.9319416,0 6.5,0.30983443 6.5,0.98971129 V 13.19164 Z m -7.441439,-2.029483 c 0,0.186713 -0.151196,0.338248 -0.338247,0.338248 -0.18705,0 -0.338246,-0.151535 -0.338246,-0.338248 v -1.014741 c 0,-0.1867126 0.151196,-0.3382469 0.338246,-0.3382469 0.187051,0 0.338247,0.1515343 0.338247,0.3382469 z M 16.985663,1.1469963 c 0,-0.15491726 0.187051,-0.23237589 0.296643,-0.1227838 l 3.414605,3.4146055 c 0.109592,0.1095921 0.03214,0.2966427 -0.122784,0.2966427 H 16.985663 Z M 16.647416,8.1179328 V 6.7649439 c 0,-0.1863741 -0.151535,-0.3382471 -0.338247,-0.3382471 -0.187051,0 -0.338247,-0.1515348 -0.338247,-0.3382472 0,-0.1867125 0.151196,-0.3382472 0.338247,-0.3382472 0.559461,0 1.014741,0.4552807 1.014741,1.0147415 v 1.3529889 c 0,0.3730862 0.303408,0.6764944 0.676495,0.6764944 0.187051,0 0.338247,0.1515343 0.338247,0.3382473 0,0.1867122 -0.151196,0.3382473 -0.338247,0.3382473 -0.373087,0 -0.676495,0.3034074 -0.676495,0.6764942 v 1.352989 c 0,0.55946 -0.45528,1.014742 -1.014741,1.014742 -0.187051,0 -0.338247,-0.151536 -0.338247,-0.338248 0,-0.186713 0.151196,-0.338247 0.338247,-0.338247 0.186712,0 0.338247,-0.151873 0.338247,-0.338247 v -1.352989 c 0,-0.4058967 0.18333,-0.7664681 0.467458,-1.0147415 C 16.830746,8.8844011 16.647416,8.5238297 16.647416,8.1179328 Z M 13.941438,7.4414383 c 0.280069,0 0.507371,0.2273022 0.507371,0.5073708 0,0.2800689 -0.227302,0.5073708 -0.507371,0.5073708 -0.280069,0 -0.507371,-0.2273019 -0.507371,-0.5073708 0,-0.2800686 0.227302,-0.5073708 0.507371,-0.5073708 z M 9.8824721,8.7944272 c 0.3730869,0 0.6764949,-0.3034082 0.6764949,-0.6764944 V 6.7649439 c 0,-0.5594608 0.45528,-1.0147415 1.014741,-1.0147415 0.187051,0 0.338247,0.1515347 0.338247,0.3382472 0,0.1867124 -0.151196,0.3382472 -0.338247,0.3382472 -0.186712,0 -0.338248,0.151873 -0.338248,0.3382471 v 1.3529889 c 0,0.4058969 -0.183329,0.7664683 -0.467457,1.0147417 0.284128,0.2482734 0.467457,0.6088448 0.467457,1.0147415 v 1.352989 c 0,0.186374 0.151536,0.338247 0.338248,0.338247 0.187051,0 0.338247,0.151534 0.338247,0.338247 0,0.186712 -0.151196,0.338248 -0.338247,0.338248 -0.559461,0 -1.014741,-0.455282 -1.014741,-1.014742 v -1.352989 c 0,-0.3730868 -0.303408,-0.6764942 -0.6764949,-0.6764942 -0.1870509,0 -0.3382473,-0.1515351 -0.3382473,-0.3382473 0,-0.186713 0.1511964,-0.3382473 0.3382473,-0.3382473 z"
   id="path4"
   style="fill:#ffffff;fill-opacity:1;stroke-width:0.338247" />
	<path
   d="m 6.5,13.868135 v 5.073708 c 0,0.341292 0.4126616,0.676494 0.8331028,0.676494 H 20.888021 c 0.420442,0 0.833103,-0.335202 0.833103,-0.676494 v -5.073708 z m 3.896946,3.57392 c 0,0.160329 -0.02943,0.29529 -0.08794,0.404544 -0.05852,0.109253 -0.13699,0.197198 -0.235758,0.263494 -0.098769,0.0663 -0.2120814,0.112636 -0.339939,0.138682 -0.1278577,0.02605 -0.2597738,0.03924 -0.395411,0.03924 -0.06765,0 -0.1474758,-0.0071 -0.2381261,-0.02097 -0.09065,-0.01387 -0.1850212,-0.03518 -0.2820981,-0.06461 -0.097077,-0.02943 -0.1904332,-0.06257 -0.2797304,-0.09944 -0.089297,-0.03687 -0.1647264,-0.07847 -0.2266257,-0.124813 l 0.2357583,-0.37444 c 0.030781,0.02131 0.074753,0.04397 0.1319164,0.06698 0.057164,0.023 0.1197396,0.04465 0.187389,0.06461 0.06765,0.01996 0.1386813,0.03755 0.2127575,0.05311 0.074076,0.01556 0.1434168,0.023 0.208022,0.023 0.1633735,0 0.2935983,-0.03179 0.3906754,-0.09471 0.097077,-0.06292 0.1484904,-0.170476 0.1549177,-0.321335 V 14.78716 h 0.564196 z m 2.684668,0.247597 c -0.05074,0.115681 -0.122445,0.217493 -0.215125,0.305099 -0.09268,0.08761 -0.206331,0.157961 -0.342307,0.210389 -0.135975,0.05243 -0.289539,0.07848 -0.462383,0.07848 -0.07408,0 -0.150182,-0.0041 -0.228993,-0.0115 -0.07881,-0.0074 -0.157962,-0.02097 -0.238127,-0.03924 -0.08016,-0.0186 -0.156608,-0.04397 -0.228993,-0.07644 -0.07239,-0.03247 -0.134623,-0.07171 -0.187389,-0.118048 l 0.09708,-0.397779 c 0.0433,0.02469 0.09775,0.04871 0.16405,0.07171 0.0663,0.023 0.134623,0.04465 0.205654,0.06461 0.07103,0.01996 0.141725,0.03619 0.212758,0.04871 0.07103,0.01251 0.13699,0.0186 0.198889,0.0186 0.188066,0 0.332159,-0.04397 0.43228,-0.131917 0.100121,-0.08794 0.150181,-0.218169 0.150181,-0.390676 0,-0.104856 -0.03518,-0.194153 -0.106209,-0.268229 -0.07103,-0.07408 -0.159653,-0.14105 -0.265862,-0.201257 -0.10621,-0.06021 -0.221214,-0.120078 -0.344674,-0.180286 -0.123461,-0.06021 -0.238802,-0.13124 -0.346703,-0.212758 -0.107902,-0.08152 -0.197199,-0.177917 -0.268231,-0.288863 -0.07103,-0.110945 -0.106209,-0.249627 -0.106209,-0.416044 0,-0.150858 0.02774,-0.285143 0.08321,-0.402176 0.05547,-0.117034 0.130225,-0.216817 0.224258,-0.298334 0.09403,-0.08152 0.203624,-0.144093 0.328437,-0.187389 0.124814,-0.04329 0.25673,-0.06461 0.395411,-0.06461 0.141726,0 0.285143,0.01319 0.429913,0.03924 0.14477,0.02605 0.261803,0.06866 0.351439,0.127181 -0.0186,0.03992 -0.03992,0.08389 -0.06461,0.131917 -0.02469,0.04803 -0.04803,0.09234 -0.06934,0.133945 -0.02131,0.0416 -0.03992,0.07644 -0.05547,0.10418 -0.01556,0.02774 -0.02469,0.0433 -0.02774,0.04634 -0.0186,-0.0091 -0.03924,-0.02131 -0.06258,-0.03687 -0.02334,-0.01556 -0.05615,-0.03078 -0.09944,-0.04634 -0.0433,-0.01556 -0.100121,-0.02605 -0.171152,-0.03247 -0.07103,-0.0064 -0.162021,-0.0047 -0.272966,0.0047 -0.0619,0.0064 -0.120078,0.02368 -0.175888,0.05311 -0.05581,0.02943 -0.104857,0.06528 -0.148153,0.108577 -0.0433,0.0433 -0.07712,0.09167 -0.101812,0.145785 -0.02469,0.05412 -0.03687,0.105871 -0.03687,0.154917 0,0.123122 0.03518,0.222566 0.10621,0.298334 0.07103,0.07577 0.158976,0.141726 0.263494,0.198889 0.104519,0.05716 0.218846,0.112637 0.342306,0.166418 0.123461,0.05378 0.238126,0.119739 0.344674,0.196522 0.106548,0.07679 0.19483,0.173521 0.265863,0.288863 0.07103,0.115342 0.106209,0.264171 0.106209,0.446148 0.0014,0.12346 -0.02436,0.242861 -0.07509,0.358542 z m 3.315838,-0.386278 c -0.07239,0.218845 -0.172845,0.400822 -0.300703,0.545592 -0.127857,0.14477 -0.277362,0.254362 -0.448516,0.328438 -0.171152,0.07408 -0.358541,0.110946 -0.561828,0.110946 -0.203287,0 -0.390676,-0.03687 -0.561829,-0.110946 -0.171152,-0.07408 -0.320657,-0.183329 -0.448515,-0.328438 -0.127858,-0.145108 -0.228317,-0.326747 -0.300702,-0.545592 -0.07239,-0.218846 -0.108577,-0.471855 -0.108577,-0.758351 0,-0.286495 0.03619,-0.538828 0.108577,-0.755982 0.07239,-0.217155 0.172844,-0.398455 0.300702,-0.543225 0.127858,-0.14477 0.277363,-0.255038 0.448515,-0.330806 0.171153,-0.07577 0.358542,-0.113313 0.561829,-0.113313 0.203287,0 0.390676,0.03755 0.561828,0.113313 0.171154,0.07577 0.320659,0.185698 0.448516,0.330806 0.127858,0.145108 0.228318,0.32607 0.300703,0.543225 0.07239,0.217154 0.108576,0.469487 0.108576,0.755982 0,0.286496 -0.03619,0.539505 -0.108576,0.758351 z m 3.355073,0.961975 h -0.564196 l -1.336415,-2.349127 v 2.349127 H 17.287718 V 14.85717 h 0.564196 l 1.336415,2.349127 V 14.85717 h 0.564196 z"
   id="path6"
   style="fill:#ffffff;fill-opacity:1;stroke-width:0.338247" />
</g>
</svg>
