<?xml version="1.0" encoding="UTF-8" standalone="no"?>
<!-- Created with Inkscape (http://www.inkscape.org/) -->

<svg
   width="35"
   height="32.566631"
   viewBox="0 0 9.2604167 8.6165882"
   version="1.1"
   id="svg291"
   inkscape:version="1.1.1 (3bf5ae0d25, 2021-09-20)"
   sodipodi:docname="pandora-icon.svg"
   xmlns:inkscape="http://www.inkscape.org/namespaces/inkscape"
   xmlns:sodipodi="http://sodipodi.sourceforge.net/DTD/sodipodi-0.dtd"
   xmlns="http://www.w3.org/2000/svg"
   xmlns:svg="http://www.w3.org/2000/svg">
  <sodipodi:namedview
     id="namedview293"
     pagecolor="#ffffff"
     bordercolor="#666666"
     borderopacity="1.0"
     inkscape:pageshadow="2"
     inkscape:pageopacity="0.0"
     inkscape:pagecheckerboard="0"
     inkscape:document-units="px"
     showgrid="false"
     width="1920px"
     units="px"
     borderlayer="true"
     inkscape:showpageshadow="false"
     inkscape:deskcolor="#d1d1d1"
     inkscape:zoom="8.0000004"
     inkscape:cx="12.187499"
     inkscape:cy="24.499999"
     inkscape:window-width="1920"
     inkscape:window-height="1018"
     inkscape:window-x="-6"
     inkscape:window-y="-6"
     inkscape:window-maximized="1"
     inkscape:current-layer="layer1" />
  <defs
     id="defs288">
    <clipPath
       clipPathUnits="userSpaceOnUse"
       id="clipPath2268">
      <path
         d="M -140.53332,-197.31467 H 981.98665 V 596.38664 H -140.53332 Z"
         id="path2270"
         style="stroke-width:1.33333" />
    </clipPath>
  </defs>
  <g
     inkscape:label="Layer 1"
     inkscape:groupmode="layer"
     id="layer1"
     transform="translate(1.9570892,2.191116)">
    <path
       id="path1116"
       style="fill:#e0e0e0;fill-opacity:1;stroke:none;stroke-width:0.118749;stroke-linecap:round;stroke-linejoin:round;stroke-dasharray:none;stroke-dashoffset:0;stroke-opacity:1;paint-order:markers stroke fill"
       d="M 4.6709088,-1.7214824 A 0.26625954,0.29954199 0 0 0 4.4088354,-1.4945082 H 1.0320407 A 0.26397316,0.29696982 0 0 0 0.78764689,-1.662984 L 0.16990243,-1.6548 A 0.26397316,0.29696982 0 0 0 0.0055866,-1.588111 c -0.0330406,0.03047 -0.0646944,0.061536 -0.0956777,0.093598 h -0.25167364 c -0.008631,0 -0.0174223,-4.507e-4 -0.0259995,0 -0.54035323,0.028406 -0.97359266,0.94269317 -0.99213486,1.54904442 V 2.256417 h 0.43054913 a 0.26397316,0.29696982 0 0 0 0.1840753,0.086579 l 0.73838138,-0.00469 A 0.26397316,0.29696982 0 0 0 0.17406213,2.256408 h 0.79350015 v 0.2164471 l 0.25687342,0.00233 0.3712709,0.039779 0.021837,0.3416313 0.9588556,0.077219 0.044719,-0.3322715 h 0.2319155 l 0.04368,0.3322748 0.9619757,-0.077219 0.019758,-0.3416315 0.3712705,-0.039779 0.2568736,-0.00351 V 2.256417 h 0.7643806 a 0.26625954,0.29954199 0 0 0 0.1934353,0.099448 l 0.7352614,0.00469 A 0.26625954,0.29954199 0 0 0 6.4066256,2.2564203 H 6.705098 v -2.60435419 -0.0409489 h -0.00104 C 6.685946,-1.0048628 6.2392631,-1.4945082 5.6869632,-1.4945082 H 5.5996056 C 5.5542845,-1.5453239 5.507122,-1.5947414 5.4571287,-1.6419246 a 0.26625954,0.29954199 0 0 0 -0.1653565,-0.065518 z m -0.00312,0.2995124 0.6177443,0.0117 c 0.2174113,0.2051905 0.3848041,0.45915122 0.5137471,0.74059121 0.00806,0.01759 0.016167,0.0348458 0.023918,0.0526488 0.00779,0.0178813 0.015379,0.0357327 0.022879,0.0538186 0.00746,0.0180056 0.014666,0.0356203 0.021837,0.0538187 0.00725,0.0183592 0.014895,0.0364433 0.021837,0.0549887 0.00687,0.018381 0.01314,0.0376046 0.019758,0.0561586 0.00655,0.0183867 0.013472,0.0364416 0.019758,0.0549886 0.00635,0.0187165 0.01264,0.0384591 0.018719,0.0573283 0.00598,0.0186372 0.011947,0.0373826 0.017679,0.0561586 0.00581,0.0190122 0.011102,0.0381838 0.016636,0.0573285 0.00553,0.0191445 0.011365,0.0380609 0.016636,0.0573283 0.00529,0.01926768 0.01056,0.03911838 0.015597,0.05849842 0.00503,0.01932887 0.00977,0.03906771 0.01456,0.05849866 0.00481,0.01948265 0.00895,0.03892295 0.013528,0.05849844 0.00456,0.01957538 0.00918,0.03884001 0.013528,0.05849844 0.00432,0.0196583 0.00838,0.0399375 0.012474,0.0596685 0.00406,0.0195467 0.00866,0.0388902 0.012474,0.0584984 0.00387,0.0197936 0.00777,0.0398222 0.011435,0.0596685 0.00366,0.0198081 0.00693,0.0398182 0.010395,0.0596683 0.00347,0.0198891 0.0061,0.039747 0.00935,0.0596685 0.00324,0.0199566 0.00735,0.0396889 0.010395,0.0596685 0.00305,0.0199445 0.00548,0.0397111 0.00833,0.0596677 0.054182,0.37936975 0.073334,0.76017113 0.075919,1.10796203 2.72e-4,0.036591 7.78e-5,0.072987 0,0.1088087 -8.17e-5,0.03522 3.791e-4,0.070898 0,0.1052964 -3.854e-4,0.034972 -0.00144,0.070086 -0.00208,0.1041282 -6.436e-4,0.033442 -0.00122,0.068153 -0.00208,0.1006181 l -0.7352584,-0.00701 c -2.854e-4,-0.070777 1.622e-4,-0.1403172 0.00104,-0.2094249 0.00484,-0.3800906 0.022162,-0.7378645 -0.00312,-1.10562226 -0.00689,-0.10029657 -0.016834,-0.20175091 -0.031198,-0.30419212 -0.00239,-0.0170414 -0.00464,-0.0343567 -0.00728,-0.0514786 -0.00264,-0.0171543 -0.00543,-0.0342377 -0.00833,-0.0514786 -0.00285,-0.0170164 -0.00625,-0.034372 -0.00936,-0.0514789 -0.00316,-0.017334 -0.00696,-0.0352156 -0.010395,-0.0526487 -0.00341,-0.0173903 -0.00669,-0.0351536 -0.010395,-0.0526488 -0.00371,-0.0175383 -0.00742,-0.0349989 -0.011434,-0.0526487 -0.00396,-0.0174193 -0.00822,-0.03511464 -0.012474,-0.05264875 -0.00432,-0.01776665 -0.00888,-0.03592831 -0.013528,-0.05381849 -0.00461,-0.0178346312 -0.00962,-0.03585582 -0.01456,-0.05381882 -0.014895,-0.05405829 -0.030864,-0.10846342 -0.048881,-0.16379585 -0.00604,-0.018547 -0.012308,-0.0374563 -0.018719,-0.0561586 -0.00638,-0.0185978 -0.013014,-0.0362308 -0.019758,-0.0549886 -0.00672,-0.0186892 -0.013694,-0.0384746 -0.020798,-0.0573283 -0.021428,-0.0567761 -0.044571,-0.1136192 -0.069682,-0.17199135 -0.00839,-0.0195333 -0.017162,-0.0399435 -0.026001,-0.0596686 -0.0088,-0.0196475 -0.017797,-0.0386549 -0.02704,-0.0584985 -0.00909,-0.0195333 -0.018545,-0.0399391 -0.02808,-0.0596685 -0.00969,-0.0200457 -0.020004,-0.0405842 -0.030159,-0.0608384 -0.010032,-0.0200262 -0.020696,-0.0406029 -0.0312,-0.0608384 -0.010626,-0.0204689 -0.021129,-0.0413192 -0.032239,-0.0620082 -0.010989,-0.0204636 -0.022855,-0.0413237 -0.034325,-0.0620082 -0.011587,-0.0209162 -0.023231,-0.0420303 -0.035337,-0.0631782 -0.012058,-0.021059 -0.024873,-0.043051 -0.03744,-0.064348 -0.03786,-0.064162 -0.077968,-0.1289653 -0.1206374,-0.195385 -0.014088,-0.021924 -0.02905,-0.044508 -0.04368,-0.066688 -0.014774,-0.022404 -0.029377,-0.045187 -0.044718,-0.067859 z m -3.87390217,0.05382 c -0.0153904,0.022218 -0.0309362,0.044734 -0.0457589,0.066688 -0.0146057,0.02164 -0.0296143,0.044127 -0.043679,0.065519 -0.0142672,0.021698 -0.0278788,0.042903 -0.041599,0.064348 -0.0136576,0.021352 -0.0274311,0.043239 -0.0405591,0.064348 -0.013185,0.021201 -0.0258196,0.042218 -0.0384788,0.063178 -0.012517,0.020733 -0.0254254,0.041505 -0.0374392,0.0620087 -0.0121455,0.0207264 -0.0237193,0.0415099 -0.035359,0.0620082 -0.0115052,0.0202694 -0.023297,0.0407865 -0.0343191,0.0608384 -0.0111462,0.0202774 -0.0215773,0.0407776 -0.0322394,0.0608384 -0.010535,0.0198291 -0.0211269,0.0400442 -0.031199,0.0596685 -0.0101885,0.0198515 -0.0204332,0.0400211 -0.0301593,0.0596685 -0.009606,0.0194142 -0.0199546,0.0392777 -0.0291193,0.0584986 -0.009273,0.0194492 -0.018208,0.0380716 -0.0270392,0.0573285 -0.008867,0.0193324 -0.0175673,0.0393537 -0.0259994,0.0584984 -0.0084,0.0190709 -0.0159404,0.0372678 -0.0239195,0.0561585 -0.008049,0.0190511 -0.0162876,0.0384547 -0.0239195,0.0573284 -0.007567,0.0187165 -0.0146728,0.0364405 -0.0218395,0.0549888 -0.007206,0.0186424 -0.0139882,0.0376802 -0.0207994,0.0561584 -0.006776,0.0183857 -0.0133625,0.0367595 -0.0197594,0.0549888 -0.00631,0.0179906 -0.0127692,0.0359743 -0.0187194,0.0538185 -0.006026,0.0180791 -0.0120111,0.0358845 -0.0176795,0.0538188 -0.005647,0.01787188 -0.0113375,0.03608451 -0.0166397,0.05381881 -0.005321,0.01779536 -0.009577,0.03615568 -0.0145599,0.05381849 -0.004928,0.01748428 -0.009952,0.03528855 -0.0145599,0.05264875 -0.004654,0.0175362 -0.009182,0.03406326 -0.0135204,0.05147857 -0.004373,0.01754665 -0.008419,0.0352187 -0.0124809,0.05264875 -0.0120914,0.051902 -0.0227234,0.10346127 -0.0322391,0.15443613 -0.003135,0.0168034 -0.006486,0.0335942 -0.00936,0.0503086 -0.002906,0.0169005 -0.005668,0.0346633 -0.00832,0.0514786 -0.002619,0.0166275 -0.00594,0.0337584 -0.00832,0.0503086 -0.002406,0.0167357 -0.004067,0.0324754 -0.00624,0.0491385 -0.0022,0.0168564 -0.004269,0.0335213 -0.00624,0.0503083 -0.001948,0.0165953 -0.003465,0.0326051 -0.005201,0.0491385 -0.001759,0.0167264 -0.003649,0.0336393 -0.005201,0.0503082 -0.001533999,0.0164794 -0.00282,0.0327091 -0.004161,0.0491392 -0.0147444,0.18072452 -0.0186868,0.359133 -0.0176795,0.5381863 1.8313e-4,0.032557 6.0648e-4,0.064453 0.001039,0.097108 0.002163,0.163468 0.007166,0.3277104 0.00936,0.4972374 4.3778e-4,0.033864 8.5088e-4,0.068708 0.001039,0.1029567 1.891e-4,0.034247 1.4278e-4,0.068277 0,0.1029567 l -0.73734136,0.00586 c -8.588e-4,-0.031803 -0.00144,-0.065519 -0.00208,-0.098276 -6.496e-4,-0.033359 -0.00169,-0.067518 -0.00208,-0.1017874 -3.787e-4,-0.033889 7.67e-5,-0.069427 0,-0.1041282 -7.39e-5,-0.035101 -2.772e-4,-0.070612 0,-0.1064668 0.00263,-0.3405848 0.021591,-0.71310239 0.075918,-1.08456272 0.00858,-0.0586565 0.018728,-0.11703981 0.029119,-0.17549569 0.00346,-0.0194465 0.00673,-0.0390939 0.010399,-0.0584984 0.00367,-0.0194437 0.00754,-0.0391065 0.011442,-0.0584987 0.011716,-0.0583591 0.024701,-0.1166113 0.038479,-0.17432539 0.00457,-0.01917872 0.0087,-0.03824106 0.01352,-0.05732859 0.00475,-0.01885312 0.00956,-0.03740352 0.01456,-0.05615863 0.00506,-0.01898721 0.010294,-0.03845182 0.015601,-0.05732837 0.00531,-0.01887692 0.011078,-0.0374021 0.01664,-0.05615864 0.00556,-0.0187566 0.010821,-0.0375321 0.01664,-0.0561586 0.00589,-0.0188629 0.012554,-0.0374394 0.01872,-0.0561586 0.00609,-0.0184868 0.011325,-0.0366515 0.017679,-0.0549886 0.00639,-0.0184347 0.013092,-0.0367156 0.019759,-0.0549886 0.00663,-0.0181778 0.0138897,-0.0358101 0.0207989,-0.0538188 0.00688,-0.0179358 0.0136343,-0.0360603 0.0207993,-0.0538187 0.007194,-0.0178296 0.0143524,-0.0361778 0.0218395,-0.0538187 0.007518,-0.0177188 0.01506,-0.0351301 0.0228795,-0.0526488 0.007784,-0.0174423 0.0158347,-0.0342448 0.0239195,-0.0514786 0.008115,-0.0172997 0.0165341,-0.0343991 0.0249593,-0.0514788 0.008391,-0.0170155 0.0172957,-0.0335212 0.0259993,-0.0503085 0.12185076,-0.23502852 0.27407868,-0.44764627 0.46486825,-0.62359417 z m 1.59532117,1.05297285 c 0.062633,0.11881136 0.1197393,0.24744977 0.1695156,0.37322052 C 2.6177974,0.04688783 2.6770337,0.04246275 2.736559,0.04166371 h 0.00104 0.00104 c 0.059411,7.9989e-4 0.1187718,0.0052239 0.1778355,0.01637966 0.049807,-0.12578229 0.1069794,-0.25440915 0.1695158,-0.37322052 0.1566391,0.0393389 0.3113368,0.0940544 0.4565485,0.1766655 -0.00333,0.14492198 -0.011323,0.28364913 -0.02808,0.4246994 0.056279,0.0408321 0.1158224,0.0762123 0.1684759,0.12401675 0.053589,0.0465368 0.1075558,0.0906509 0.1559969,0.14507639 0.0968,-0.0723865 0.1991942,-0.14002758 0.3047111,-0.20006613 C 4.2574159,0.49361452 4.3646014,0.64316131 4.4514746,0.81033355 4.3860603,0.92988124 4.3171939,1.0421066 4.2434798,1.148455 h -0.00208 v 0.9441661 0.081898 c -0.00166,1.85e-5 -0.00354,-1.738e-4 -0.00519,0 l -0.5563818,0.06084 c -0.00749,8.218e-4 -0.00949,0.00873 -0.013528,0.01521 -0.0024,0.00129 -0.00299,0.00423 -0.0052,0.00586 -0.015215,0.011089 -0.034013,0.019251 -0.035358,0.040949 L 3.6091036,2.5758168 3.123436,2.6144259 3.0901566,2.3582023 c -0.00432,-0.033225 -0.029564,-0.057328 -0.059279,-0.057328 H 2.4443335 c -0.029731,0 -0.054944,0.024103 -0.059278,0.057328 l -0.034329,0.2562258 -0.4846279,-0.038609 -0.01768,-0.278453 c -0.00133,-0.021699 -0.020147,-0.029854 -0.035357,-0.040949 -0.00219,-0.00163 -0.0028,-0.00456 -0.0052,-0.00586 -0.00405,-0.00648 -0.00603,-0.014399 -0.013528,-0.01521 L 1.2379499,2.1745217 c -0.00165,-1.659e-4 -0.00353,1.15e-5 -0.0052,0 V 1.148457 h -0.00208 C 1.1569869,1.0421115 1.0891163,0.929894 1.0237338,0.81033367 1.110636,0.64317298 1.2167524,0.49362648 1.3305259,0.35521513 c 0.105548,0.0600451 0.2079084,0.12768942 0.3047124,0.200065 0.048451,-0.0544258 0.1035232,-0.0985412 0.1570365,-0.14507639 0.052672,-0.0477998 0.1120886,-0.0831801 0.1684756,-0.12401675 -0.016816,-0.14105041 -0.024772,-0.27977748 -0.028093,-0.42469945 0.145201,-0.0826112 0.2999911,-0.1373233 0.4565484,-0.17666558 z m -0.28703,1.24133805 -0.3463115,0.1052976 -0.093598,0.3896 0.2537537,0.2866426 0.3473511,-0.1041273 0.092558,-0.3907702 z m 1.4362033,0 L 3.191026,1.031457 3.0984687,1.4210573 3.3522225,1.7076999 3.6985337,1.6035717 3.7921316,1.2128015 Z M 2.7282379,1.3719193 c -0.051317,0.00588 -0.090477,0.055228 -0.090477,0.1146561 v 0.3392915 c 0,0.063393 0.044528,0.1134871 0.1008766,0.1134871 0.056349,0 0.1019172,-0.050095 0.1019172,-0.1134871 V 1.4865767 c 0,-0.063393 -0.045367,-0.1146561 -0.1019172,-0.1146561 -0.00401,0 -0.00735,-3.894e-4 -0.00935,0 z M 4.509713,3.3912883 3.4915784,3.5012652 3.4832484,3.6451717 H 3.2232652 l -0.01456,-0.099447 h -0.943256 l -0.013528,0.099449 H 1.9950564 L 1.9867404,3.5012662 1.2389993,3.417028 0.9644462,3.439258 V 3.6451722 H 0.20734145 A 0.25702542,0.28915359 0 0 0 0.02118619,3.550405 h -0.71134206 a 0.25702542,0.28915359 0 0 0 -0.1882353,0.094768 H -1.3588591 v 2.197204 h 0.47630813 a 0.25702542,0.28915359 0 0 0 0.1923951,0.099448 H 0.02118619 A 0.25702542,0.28915359 0 0 0 0.21150137,5.842377 H 5.2709736 A 0.25789289,0.29012951 0 0 0 5.4768884,5.955864 H 6.1840706 A 0.25789289,0.29012951 0 0 0 6.3868655,5.8423768 h 0.319272 V 3.6451722 H 6.3837455 A 0.25789289,0.29012951 0 0 0 6.1840706,3.5363647 H 5.4768884 A 0.25789289,0.29012951 0 0 0 5.2740934,3.6451722 H 4.509713 Z M 1.2327558,3.7188801 h 0.00104 l 0.5012672,0.05382 0.015597,0.2796231 c 0.00222,0.033644 0.026576,0.060689 0.056157,0.063177 l 0.5917451,0.047969 c 0.031394,0.00258 0.060454,-0.023429 0.064478,-0.058498 l 0.033281,-0.259734 H 2.979908 l 0.034318,0.2597334 c 0.00387,0.029259 0.024261,0.052074 0.048881,0.057328 0.00352,7.504e-4 0.00672,0.00117 0.010395,0.00117 0.00224,0 0.00278,4.76e-5 0.00416,0 l 0.5927815,-0.047969 c 0.029785,-0.0024 0.053367,-0.029535 0.055118,-0.063177 l 0.016645,-0.278453 0.5002276,-0.054989 c 0,0.060811 -0.00104,0.1270397 -0.00104,0.1403971 0,0.5973122 -0.6699265,0.8846115 -1.5027619,0.8880076 h -0.00208 C 1.9037083,4.7439806 1.2327558,4.4565888 1.2327558,3.8592767 c 0,-0.013269 2.012e-4,-0.079608 0,-0.1403966 z m 4.2441326,0.109977 H 6.1840706 V 5.6633712 H 5.4768884 Z m -6.16600427,0.0082 h 0.70822209 v 1.8181275 h -0.70822209 z"
       fill="#E0E0E0" />
  </g>
</svg>
