<?xml version="1.0" encoding="UTF-8" standalone="no"?>
<!-- Uploaded to: SVG Repo, www.svgrepo.com, Generator: SVG Repo Mixer Tools -->

<svg
   fill="#000000"
   height="80.08654"
   width="62.136112"
   version="1.1"
   id="Capa_1"
   viewBox="0 0 4.5048681 5.8062742"
   xml:space="preserve"
   sodipodi:docname="json-file-svgrepo-com.svg"
   inkscape:version="1.1.1 (3bf5ae0d25, 2021-09-20)"
   xmlns:inkscape="http://www.inkscape.org/namespaces/inkscape"
   xmlns:sodipodi="http://sodipodi.sourceforge.net/DTD/sodipodi-0.dtd"
   xmlns="http://www.w3.org/2000/svg"
   xmlns:svg="http://www.w3.org/2000/svg"><defs
   id="defs13" /><sodipodi:namedview
   id="namedview11"
   pagecolor="#505050"
   bordercolor="#eeeeee"
   borderopacity="1"
   inkscape:pageshadow="0"
   inkscape:pageopacity="0"
   inkscape:pagecheckerboard="0"
   showgrid="false"
   inkscape:zoom="0.89875"
   inkscape:cx="152.99026"
   inkscape:cy="145.758"
   inkscape:window-width="1920"
   inkscape:window-height="1018"
   inkscape:window-x="-6"
   inkscape:window-y="-6"
   inkscape:window-maximized="1"
   inkscape:current-layer="Capa_1" />
<g
   id="g8"
   style="fill:#ffffff;fill-opacity:1"
   transform="matrix(0.10010818,0,0,0.10010818,-0.65070317,0)">
	<path
   d="m 33.655,45.988 c -0.232,-0.31 -0.497,-0.533 -0.793,-0.67 -0.296,-0.137 -0.608,-0.205 -0.937,-0.205 -0.337,0 -0.658,0.063 -0.964,0.191 -0.306,0.128 -0.579,0.344 -0.82,0.649 -0.241,0.305 -0.431,0.699 -0.567,1.183 -0.137,0.483 -0.21,1.075 -0.219,1.777 0.009,0.684 0.08,1.267 0.212,1.75 0.132,0.483 0.314,0.877 0.547,1.183 0.233,0.306 0.497,0.528 0.793,0.67 0.296,0.142 0.608,0.212 0.937,0.212 0.337,0 0.658,-0.066 0.964,-0.198 0.306,-0.132 0.579,-0.349 0.82,-0.649 0.241,-0.3 0.431,-0.695 0.567,-1.183 0.136,-0.488 0.21,-1.082 0.219,-1.784 -0.009,-0.684 -0.08,-1.265 -0.212,-1.743 -0.132,-0.478 -0.314,-0.873 -0.547,-1.183 z"
   id="path2"
   style="fill:#ffffff;fill-opacity:1" />
	<path
   d="M 51.5,39 V 13.978 c 0,-0.766 -0.092,-1.333 -0.55,-1.792 L 39.313,0.55 C 38.964,0.201 38.48,0 37.985,0 H 8.963 C 7.777,0 6.5,0.916 6.5,2.926 V 39 Z m -22,-6 c 0,0.552 -0.447,1 -1,1 -0.553,0 -1,-0.448 -1,-1 v -3 c 0,-0.552 0.447,-1 1,-1 0.553,0 1,0.448 1,1 z m 8,-29.609 c 0,-0.458 0.553,-0.687 0.877,-0.363 L 48.472,13.123 C 48.796,13.447 48.567,14 48.109,14 H 37.5 Z M 36.5,24 v -4 c 0,-0.551 -0.448,-1 -1,-1 -0.553,0 -1,-0.448 -1,-1 0,-0.552 0.447,-1 1,-1 1.654,0 3,1.346 3,3 v 4 c 0,1.103 0.897,2 2,2 0.553,0 1,0.448 1,1 0,0.552 -0.447,1 -1,1 -1.103,0 -2,0.897 -2,2 v 4 c 0,1.654 -1.346,3 -3,3 -0.553,0 -1,-0.448 -1,-1 0,-0.552 0.447,-1 1,-1 0.552,0 1,-0.449 1,-1 v -4 c 0,-1.2 0.542,-2.266 1.382,-3 C 37.042,26.266 36.5,25.2 36.5,24 Z m -8,-2 C 29.328,22 30,22.672 30,23.5 30,24.328 29.328,25 28.5,25 27.672,25 27,24.328 27,23.5 27,22.672 27.672,22 28.5,22 Z m -12,4 c 1.103,0 2,-0.897 2,-2 v -4 c 0,-1.654 1.346,-3 3,-3 0.553,0 1,0.448 1,1 0,0.552 -0.447,1 -1,1 -0.552,0 -1,0.449 -1,1 v 4 c 0,1.2 -0.542,2.266 -1.382,3 0.84,0.734 1.382,1.8 1.382,3 v 4 c 0,0.551 0.448,1 1,1 0.553,0 1,0.448 1,1 0,0.552 -0.447,1 -1,1 -1.654,0 -3,-1.346 -3,-3 v -4 c 0,-1.103 -0.897,-2 -2,-2 -0.553,0 -1,-0.448 -1,-1 0,-0.552 0.447,-1 1,-1 z"
   id="path4"
   style="fill:#ffffff;fill-opacity:1" />
	<path
   d="m 6.5,41 v 15 c 0,1.009 1.22,2 2.463,2 H 49.037 C 50.28,58 51.5,57.009 51.5,56 V 41 Z m 11.521,10.566 c 0,0.474 -0.087,0.873 -0.26,1.196 -0.173,0.323 -0.405,0.583 -0.697,0.779 -0.292,0.196 -0.627,0.333 -1.005,0.41 -0.378,0.077 -0.768,0.116 -1.169,0.116 -0.2,0 -0.436,-0.021 -0.704,-0.062 -0.268,-0.041 -0.547,-0.104 -0.834,-0.191 -0.287,-0.087 -0.563,-0.185 -0.827,-0.294 -0.264,-0.109 -0.487,-0.232 -0.67,-0.369 l 0.697,-1.107 c 0.091,0.063 0.221,0.13 0.39,0.198 0.169,0.068 0.354,0.132 0.554,0.191 0.2,0.059 0.41,0.111 0.629,0.157 0.219,0.046 0.424,0.068 0.615,0.068 0.483,0 0.868,-0.094 1.155,-0.28 0.287,-0.186 0.439,-0.504 0.458,-0.95 v -7.711 h 1.668 z m 7.937,0.732 c -0.15,0.342 -0.362,0.643 -0.636,0.902 -0.274,0.259 -0.61,0.467 -1.012,0.622 -0.402,0.155 -0.856,0.232 -1.367,0.232 -0.219,0 -0.444,-0.012 -0.677,-0.034 -0.233,-0.022 -0.467,-0.062 -0.704,-0.116 -0.237,-0.055 -0.463,-0.13 -0.677,-0.226 -0.214,-0.096 -0.398,-0.212 -0.554,-0.349 l 0.287,-1.176 c 0.128,0.073 0.289,0.144 0.485,0.212 0.196,0.068 0.398,0.132 0.608,0.191 0.21,0.059 0.419,0.107 0.629,0.144 0.21,0.037 0.405,0.055 0.588,0.055 0.556,0 0.982,-0.13 1.278,-0.39 0.296,-0.26 0.444,-0.645 0.444,-1.155 0,-0.31 -0.104,-0.574 -0.314,-0.793 C 24.126,50.198 23.864,50 23.55,49.822 23.236,49.644 22.896,49.467 22.531,49.289 22.166,49.111 21.825,48.901 21.506,48.66 c -0.319,-0.241 -0.583,-0.526 -0.793,-0.854 -0.21,-0.328 -0.314,-0.738 -0.314,-1.23 0,-0.446 0.082,-0.843 0.246,-1.189 0.164,-0.346 0.385,-0.641 0.663,-0.882 0.278,-0.241 0.602,-0.426 0.971,-0.554 0.369,-0.128 0.759,-0.191 1.169,-0.191 0.419,0 0.843,0.039 1.271,0.116 0.428,0.077 0.774,0.203 1.039,0.376 -0.055,0.118 -0.118,0.248 -0.191,0.39 -0.073,0.142 -0.142,0.273 -0.205,0.396 -0.063,0.123 -0.118,0.226 -0.164,0.308 -0.046,0.082 -0.073,0.128 -0.082,0.137 C 25.061,45.456 25,45.42 24.931,45.374 24.862,45.328 24.765,45.283 24.637,45.237 24.509,45.191 24.341,45.16 24.131,45.141 c -0.21,-0.019 -0.479,-0.014 -0.807,0.014 -0.183,0.019 -0.355,0.07 -0.52,0.157 -0.165,0.087 -0.31,0.193 -0.438,0.321 -0.128,0.128 -0.228,0.271 -0.301,0.431 -0.073,0.16 -0.109,0.313 -0.109,0.458 0,0.364 0.104,0.658 0.314,0.882 0.21,0.224 0.47,0.419 0.779,0.588 0.309,0.169 0.647,0.333 1.012,0.492 0.365,0.159 0.704,0.354 1.019,0.581 0.315,0.227 0.576,0.513 0.786,0.854 0.21,0.341 0.314,0.781 0.314,1.319 0.004,0.365 -0.072,0.718 -0.222,1.06 z m 9.803,-1.142 c -0.214,0.647 -0.511,1.185 -0.889,1.613 -0.378,0.428 -0.82,0.752 -1.326,0.971 -0.506,0.219 -1.06,0.328 -1.661,0.328 -0.601,0 -1.155,-0.109 -1.661,-0.328 -0.506,-0.219 -0.948,-0.542 -1.326,-0.971 -0.378,-0.429 -0.675,-0.966 -0.889,-1.613 -0.214,-0.647 -0.321,-1.395 -0.321,-2.242 0,-0.847 0.107,-1.593 0.321,-2.235 0.214,-0.642 0.511,-1.178 0.889,-1.606 0.378,-0.428 0.82,-0.754 1.326,-0.978 0.506,-0.224 1.06,-0.335 1.661,-0.335 0.601,0 1.155,0.111 1.661,0.335 0.506,0.224 0.948,0.549 1.326,0.978 0.378,0.429 0.675,0.964 0.889,1.606 0.214,0.642 0.321,1.388 0.321,2.235 0,0.847 -0.107,1.595 -0.321,2.242 z M 45.68,54 H 44.012 L 40.061,47.055 V 54 H 38.393 V 43.924 h 1.668 l 3.951,6.945 v -6.945 h 1.668 z"
   id="path6"
   style="fill:#ffffff;fill-opacity:1" />
</g>
</svg>
