<?xml version="1.0" encoding="UTF-8" standalone="no"?>
<svg
   viewBox="0 0 30.182509 29.235359"
   version="1.1"
   id="svg8"
   sodipodi:docname="pandora-icon.svg"
   inkscape:version="1.1.1 (3bf5ae0d25, 2021-09-20)"
   width="30.182508"
   height="29.235359"
   xmlns:inkscape="http://www.inkscape.org/namespaces/inkscape"
   xmlns:sodipodi="http://sodipodi.sourceforge.net/DTD/sodipodi-0.dtd"
   xmlns="http://www.w3.org/2000/svg"
   xmlns:svg="http://www.w3.org/2000/svg">
  <defs
     id="defs12" />
  <sodipodi:namedview
     id="namedview10"
     pagecolor="#505050"
     bordercolor="#eeeeee"
     borderopacity="1"
     inkscape:pageshadow="0"
     inkscape:pageopacity="0"
     inkscape:pagecheckerboard="0"
     showgrid="false"
     inkscape:zoom="3.9719514"
     inkscape:cx="139.85569"
     inkscape:cy="16.112987"
     inkscape:window-width="1920"
     inkscape:window-height="1018"
     inkscape:window-x="-6"
     inkscape:window-y="-6"
     inkscape:window-maximized="1"
     inkscape:current-layer="g6" />
  <g
     class=""
     transform="matrix(0.14294609,0,0,0.14294609,-2.5537319,-2.9792351)"
     id="g6">
    <path
       d="m 75.239183,20.841816 c -5.575426,-0.01594 -10.794131,1.266997 -16.583946,4.17489 h 0.0018 C 37.209304,35.796821 18.799501,65.094595 17.917041,89.537907 l 18.613516,6.306636 C 38.456492,68.426887 57.460979,38.975833 81.688618,26.797591 h 8.76e-4 c 1.967301,-0.987903 3.923927,-1.843792 5.864539,-2.569435 l -9.900996,-3.300398 c -0.813963,-0.05449 -1.617696,-0.08416 -2.414313,-0.08594 z m 26.393767,8.944295 c -4.660503,-0.03987 -10.15542,1.370219 -16.200989,4.404811 l 0.0018,-0.0017 C 63.981582,44.971923 45.569553,74.286975 44.714224,98.618204 l 69.602766,23.585656 c 1.7191,-27.563854 20.81477,-57.312605 45.19631,-69.567486 h 8.8e-4 l 8.7e-4,-0.0013 c 1.91393,-0.960437 3.81806,-1.796834 5.70753,-2.510073 L 105.38073,30.173716 c -1.17957,-0.24011 -2.42765,-0.375226 -3.74823,-0.386744 z m 77.82467,25.837453 c -4.6596,-0.03987 -10.15452,1.369775 -16.19921,4.403482 l -0.003,8.73e-4 c -21.60649,10.861627 -40.13105,40.523101 -40.73642,64.954901 l 20.55147,6.96406 c 1.7409,-27.54967 20.82723,-57.269188 45.19364,-69.516539 2.01134,-1.011383 4.02089,-1.88632 6.01799,-2.618167 L 182.4761,55.876521 c -0.96252,-0.155052 -1.9673,-0.243654 -3.01789,-0.252513 z m 28.26811,9.75234 c -4.56666,0.04119 -9.82716,1.485399 -15.71573,4.445124 -20.97534,10.543549 -39.04221,38.801582 -40.63678,62.796132 l 77.63787,-32.661071 c -0.1797,-17.281678 -4.78327,-27.158058 -10.85952,-31.489774 -1.04392,-0.74425 -2.16479,-1.35427 -3.35816,-1.832716 l -0.004,0.01506 -2.10608,-0.701722 c -1.54785,-0.392947 -3.20024,-0.58787 -4.95672,-0.571478 z M 17.880567,98.270445 17.865,181.32702 36.365986,187.7391 V 104.53544 L 17.880567,98.271335 Z m 26.798519,9.080745 v 83.26834 l 69.512464,24.08625 v -83.80083 l -12.92244,-4.37957 v 52.90824 L 56.321431,164.33509 v -53.03893 z m 184.240374,1.63159 -77.36521,32.54634 v 83.83272 l 77.36432,-32.56271 v -83.81679 z m -164.284484,5.1309 v 44.27715 l 28.321923,9.51444 V 123.70964 L 64.63542,114.11323 Z m 13.924555,12.75725 c 4.316674,0 7.816272,3.48513 7.816272,7.78451 0,2.80865 -1.498938,5.26291 -3.73934,6.6318 v 12.63896 h -8.3131 v -12.73465 c -2.151888,-1.38661 -3.57966,-3.79302 -3.57966,-6.53611 0,-4.29938 3.499153,-7.78451 7.815828,-7.78451 z m 43.943789,6.85065 v 83.86419 l 20.73872,7.18555 v -84.02189 l -20.73917,-7.02785 z"
       fill="#ffffff"
       fill-opacity="1"
       id="path4"
       style="fill:#dcdcdc;fill-opacity:1;stroke-width:0.443897" />
  </g>
</svg>
