<?xml version="1.0" encoding="UTF-8" standalone="no"?>
<!-- Created with Inkscape (http://www.inkscape.org/) -->

<svg
   width="16"
   height="16"
   viewBox="0 0 4.2333333 4.2333335"
   version="1.1"
   id="svg291"
   inkscape:version="1.2 (dc2aedaf03, 2022-05-15)"
   sodipodi:docname="pandora-icon.svg"
   xmlns:inkscape="http://www.inkscape.org/namespaces/inkscape"
   xmlns:sodipodi="http://sodipodi.sourceforge.net/DTD/sodipodi-0.dtd"
   xmlns="http://www.w3.org/2000/svg"
   xmlns:svg="http://www.w3.org/2000/svg">
  <sodipodi:namedview
     id="namedview293"
     pagecolor="#ffffff"
     bordercolor="#666666"
     borderopacity="1.0"
     inkscape:pageshadow="2"
     inkscape:pageopacity="0.0"
     inkscape:pagecheckerboard="0"
     inkscape:document-units="px"
     showgrid="false"
     width="1920px"
     units="px"
     borderlayer="true"
     inkscape:showpageshadow="false"
     inkscape:deskcolor="#d1d1d1"
     inkscape:zoom="45.254834"
     inkscape:cx="12.639534"
     inkscape:cy="5.6568542"
     inkscape:window-width="2560"
     inkscape:window-height="1377"
     inkscape:window-x="-8"
     inkscape:window-y="-8"
     inkscape:window-maximized="1"
     inkscape:current-layer="layer1" />
  <defs
     id="defs288">
    <clipPath
       clipPathUnits="userSpaceOnUse"
       id="clipPath2268">
      <path
         d="M -140.53332,-197.31467 H 981.98665 V 596.38664 H -140.53332 Z"
         id="path2270"
         style="stroke-width:1.33333" />
    </clipPath>
  </defs>
  <g
     inkscape:label="Layer 1"
     inkscape:groupmode="layer"
     id="layer1">
    <path
       id="path25746"
       style="fill:#e0e0e0;fill-opacity:1;stroke:none;stroke-width:0.0556319;stroke-linecap:round;stroke-linejoin:round;stroke-dasharray:none;stroke-dashoffset:0;stroke-opacity:1;paint-order:markers stroke fill"
       d="M 3.109371 0.42167969 A 0.13230472 0.13230472 0 0 0 2.9791464 0.52193197 L 1.3012126 0.52193197 A 0.13116862 0.13116862 0 0 0 1.179773 0.44751791 L 0.87281496 0.45113526 A 0.13116862 0.13116862 0 0 0 0.79116619 0.48059083 C 0.77474823 0.49404934 0.75901943 0.50777069 0.74362387 0.52193197 L 0.6185669 0.52193197 C 0.61427882 0.52193197 0.60990971 0.52173285 0.6056478 0.52193197 C 0.33714554 0.53447701 0.12186832 0.93830858 0.11265462 1.2061279 L 0.11265462 2.1786784 L 0.32659506 2.1786784 A 0.13116862 0.13116862 0 0 0 0.41806234 2.216919 L 0.78496502 2.2148519 A 0.13116862 0.13116862 0 0 0 0.87488201 2.1786784 L 1.2691732 2.1786784 L 1.2691732 2.2742798 L 1.396814 2.2753133 L 1.5812989 2.2928833 L 1.5921509 2.4437785 L 2.0686076 2.477885 L 2.0908285 2.3311239 L 2.2060669 2.3311239 L 2.227771 2.477885 L 2.705778 2.4437785 L 2.7155966 2.2928833 L 2.9000814 2.2753133 L 3.0277222 2.2737631 L 3.0277222 2.1786784 L 3.407544 2.1786784 A 0.13230472 0.13230472 0 0 0 3.5036622 2.2226034 L 3.8690145 2.2246704 A 0.13230472 0.13230472 0 0 0 3.9718506 2.1786784 L 4.120162 2.1786784 L 4.120162 1.028361 L 4.120162 1.0102743 L 4.1196452 1.0102743 C 4.1106457 0.73820346 3.8886883 0.52193197 3.6142497 0.52193197 L 3.5708415 0.52193197 C 3.5483216 0.49948708 3.5248865 0.47765996 3.5000448 0.45681967 A 0.13230472 0.13230472 0 0 0 3.4178793 0.42788087 L 3.109371 0.42167969 z M 3.1078207 0.55397136 L 3.4147787 0.55913901 C 3.5228107 0.64976965 3.6059884 0.76194156 3.6700603 0.88625083 C 3.6740648 0.89402015 3.6780908 0.90164191 3.6819459 0.90950522 C 3.6858188 0.91740322 3.68959 0.92528801 3.6933147 0.93327638 C 3.6970228 0.94122926 3.7006028 0.94900952 3.7041667 0.95704754 C 3.7077638 0.96515661 3.7115659 0.97314421 3.7150188 0.98133546 C 3.7184411 0.98945422 3.721554 0.99794505 3.7248373 1.0061402 C 3.7280896 1.0142614 3.7315374 1.0222361 3.7346558 1.0304281 C 3.7378028 1.038695 3.7409444 1.0474151 3.7439576 1.0557495 C 3.7469317 1.0639813 3.7498963 1.072261 3.7527426 1.0805542 C 3.7556246 1.0889517 3.7582573 1.0974196 3.7610108 1.1058757 C 3.7637643 1.1143317 3.7666514 1.1226868 3.769279 1.1311971 C 3.7719066 1.1397074 3.7745262 1.1484753 3.7770305 1.1570353 C 3.7795278 1.1655726 3.7818879 1.1742911 3.7842652 1.1828736 C 3.7866488 1.1914789 3.7887176 1.2000654 3.7909831 1.2087118 C 3.7932487 1.2173581 3.7955509 1.2258671 3.7977011 1.23455 C 3.7998512 1.2432329 3.8018649 1.25219 3.8039022 1.260905 C 3.8059194 1.2695386 3.8081944 1.2780824 3.8101034 1.2867432 C 3.8120305 1.2954859 3.8139683 1.3043322 3.8157878 1.3130982 C 3.8176036 1.3218472 3.8192442 1.3306855 3.8209555 1.3394531 C 3.82267 1.3482379 3.8239941 1.3570089 3.8256063 1.3658081 C 3.8272216 1.3746228 3.8292588 1.3833383 3.830774 1.3921631 C 3.8322865 1.4009723 3.8334927 1.4097033 3.8349081 1.4185181 C 3.8618309 1.586082 3.8713471 1.7542781 3.8726319 1.9078939 C 3.8727671 1.924056 3.8726705 1.9401311 3.8726319 1.955953 C 3.8725913 1.9715098 3.8728202 1.9872686 3.8726319 2.0024618 C 3.8724404 2.0179082 3.8719218 2.0334182 3.8715984 2.0484538 C 3.8712785 2.0632245 3.8709918 2.0785563 3.8705648 2.0928955 L 3.5052125 2.089795 C 3.5050706 2.0585328 3.5052931 2.0278182 3.5057292 1.9972941 C 3.508128 1.8294119 3.5167416 1.6713867 3.5041789 1.5089518 C 3.5007528 1.4646515 3.495814 1.4198404 3.488676 1.3745931 C 3.4874886 1.3670661 3.4863668 1.3594181 3.4850586 1.3518555 C 3.4837478 1.3442786 3.4823617 1.3367331 3.4809245 1.3291179 C 3.4795061 1.3216019 3.4778201 1.3139362 3.4762737 1.3063802 C 3.4747051 1.2987239 3.4728112 1.2908259 3.471106 1.2831258 C 3.469405 1.2754447 3.4677805 1.2675988 3.4659384 1.2598714 C 3.4640914 1.2521249 3.4622479 1.2444127 3.460254 1.236617 C 3.458286 1.2289231 3.4561689 1.2211072 3.4540528 1.2133626 C 3.4519068 1.2055153 3.4496381 1.1974934 3.4473349 1.1895915 C 3.4450387 1.1817142 3.4425576 1.1737544 3.4401002 1.1658203 C 3.4327031 1.1419433 3.4247638 1.1179131 3.4158122 1.0934733 C 3.4128117 1.0852813 3.4096961 1.0769293 3.4065105 1.0686686 C 3.4033436 1.0604542 3.400047 1.0526658 3.3966919 1.0443807 C 3.3933491 1.0361258 3.3898915 1.0273869 3.3863567 1.0190593 C 3.3757113 0.99398437 3.3642116 0.96887731 3.3517335 0.9430949 C 3.3475578 0.93446721 3.3432057 0.92545226 3.3388143 0.91673992 C 3.3344409 0.90806181 3.329971 0.89966648 3.3253785 0.89090171 C 3.3208578 0.88227403 3.3161638 0.87326096 3.3114258 0.86454673 C 3.306609 0.85569259 3.3014859 0.84662113 3.2964397 0.83767498 C 3.2914502 0.82882954 3.2861555 0.81974125 3.2809367 0.81080324 C 3.2756559 0.80176236 3.2704377 0.79255299 3.264917 0.78341473 C 3.2594567 0.77437622 3.2535638 0.7651626 3.2478638 0.75602622 C 3.2420983 0.74678788 3.2363095 0.73746204 3.2302938 0.72812094 C 3.2243034 0.71881897 3.2179338 0.70910543 3.2116903 0.6996989 C 3.1928778 0.67135927 3.172948 0.64273617 3.1517457 0.61339926 C 3.1447473 0.60371594 3.1373103 0.59374092 3.1300416 0.58394369 C 3.1226982 0.57404855 3.115445 0.56398537 3.1078207 0.55397136 z M 1.1828736 0.57774252 C 1.1752265 0.58755607 1.1675013 0.5975009 1.1601359 0.60719809 C 1.1528786 0.61675661 1.1454205 0.62668889 1.1384318 0.63613689 C 1.131343 0.64572035 1.1245788 0.65508657 1.1177612 0.66455893 C 1.1109744 0.67399 1.1041306 0.68365744 1.0976074 0.69298097 C 1.0910561 0.70234484 1.0847775 0.71162822 1.0784872 0.72088624 C 1.0722671 0.73004382 1.0658534 0.73921819 1.0598836 0.74827475 C 1.0538491 0.75742954 1.0480974 0.76660908 1.0423137 0.77566326 C 1.0365967 0.78461597 1.0307374 0.79367809 1.0252604 0.80253501 C 1.0197221 0.81149121 1.0145387 0.8205459 1.0092407 0.82940675 C 1.0040061 0.83816512 0.99874267 0.84709396 0.99373781 0.85576173 C 0.988675 0.86452985 0.98358445 0.8734387 0.97875164 0.88211671 C 0.97397826 0.89069175 0.96883608 0.89946531 0.96428224 0.90795493 C 0.95967428 0.91654547 0.95523465 0.9247707 0.95084637 0.93327638 C 0.94644024 0.94181531 0.94211721 0.95065854 0.93792726 0.9591146 C 0.93375348 0.96753805 0.93000613 0.97557543 0.92604168 0.98391929 C 0.92204212 0.99233403 0.91794803 1.0009043 0.9141561 1.0092407 C 0.91039584 1.0175076 0.90686532 1.0253361 0.90330405 1.0335287 C 0.89972382 1.0417629 0.89635318 1.0501717 0.89296876 1.0583333 C 0.88960135 1.0664541 0.88632899 1.0745696 0.88315024 1.0826213 C 0.88001512 1.0905676 0.87680486 1.0985108 0.87384848 1.1063924 C 0.87085325 1.1143777 0.86788039 1.1222422 0.86506349 1.1301636 C 0.86225692 1.1380574 0.85942986 1.1461018 0.85679526 1.1539348 C 0.85415154 1.1617948 0.85203628 1.1699044 0.84956056 1.1777059 C 0.84711134 1.1854286 0.84461552 1.1932925 0.84232586 1.2009603 C 0.84001299 1.2087059 0.83776312 1.2160057 0.83560792 1.2236979 C 0.83343542 1.2314481 0.83142444 1.2392536 0.82940675 1.2469523 C 0.82339871 1.2698768 0.81811549 1.2926501 0.81338706 1.3151652 C 0.81182974 1.3225871 0.81016457 1.3300035 0.80873618 1.3373861 C 0.80729188 1.3448509 0.80591969 1.3526965 0.80460206 1.3601237 C 0.80330045 1.367468 0.80165076 1.3750345 0.80046795 1.3823446 C 0.79927184 1.3897368 0.79844712 1.3966888 0.79736736 1.4040487 C 0.79627381 1.4114938 0.79524654 1.4188548 0.79426678 1.4262696 C 0.7932982 1.4335996 0.79254551 1.4406706 0.79168296 1.4479737 C 0.79080916 1.4553617 0.7898697 1.4628315 0.78909913 1.4701945 C 0.78833742 1.4774731 0.78769811 1.4846419 0.78703208 1.4918986 C 0.77970562 1.5717228 0.7777467 1.6505241 0.77824708 1.7296102 C 0.77833807 1.7439895 0.77854844 1.7580785 0.77876385 1.7725017 C 0.77983896 1.8447037 0.78232579 1.9172481 0.78341473 1.9921265 C 0.78363225 2.007084 0.78383753 2.0224744 0.78393149 2.0376018 C 0.78402544 2.0527285 0.78400243 2.0677593 0.78393149 2.083077 L 0.41754558 2.0856608 C 0.41711882 2.0716143 0.4168313 2.0567211 0.41651205 2.0422526 C 0.41618924 2.0275187 0.41566879 2.0124303 0.41547852 1.9972941 C 0.41529037 1.9823263 0.41551665 1.9666296 0.41547852 1.9513021 C 0.41544178 1.9357985 0.41534076 1.9201129 0.41547852 1.9042766 C 0.41678725 1.7538436 0.42620697 1.5893063 0.45320232 1.425236 C 0.45746557 1.3993281 0.46250827 1.373541 0.46767172 1.3477214 C 0.46938941 1.3391321 0.47101683 1.330454 0.47283936 1.3218832 C 0.47466578 1.3132951 0.47658946 1.3046102 0.47852377 1.2960449 C 0.48434497 1.2702682 0.49079809 1.2445388 0.49764405 1.2190471 C 0.49991777 1.2105761 0.50196989 1.2021564 0.50436199 1.1937256 C 0.50672467 1.1853984 0.50911596 1.1772048 0.51159669 1.1689209 C 0.51410979 1.1605345 0.51671143 1.1519371 0.51934815 1.1435995 C 0.52198488 1.1352618 0.5248534 1.1270793 0.52761638 1.1187948 C 0.53037936 1.1105102 0.53299276 1.1022172 0.53588461 1.0939901 C 0.53881314 1.0856586 0.54212297 1.0774535 0.54518637 1.0691854 C 0.54820972 1.06102 0.5508139 1.0529968 0.55397136 1.0448975 C 0.5571456 1.0367551 0.56047744 1.0286806 0.56378989 1.0206096 C 0.56708409 1.0125806 0.5706916 1.0047926 0.57412517 0.99683839 C 0.57754487 0.98891635 0.58089992 0.98091088 0.58446046 0.97306724 C 0.58803601 0.96519209 0.59159233 0.95708784 0.59531251 0.94929608 C 0.59904914 0.94146983 0.60279616 0.93377942 0.60668132 0.92604168 C 0.61054874 0.91833763 0.61454965 0.91091607 0.6185669 0.90330405 C 0.62259948 0.89566301 0.62678302 0.88811035 0.63096925 0.88056642 C 0.63513899 0.87305076 0.6395635 0.86576054 0.64388836 0.85834555 C 0.70443617 0.7545358 0.78007843 0.66062466 0.87488201 0.58291017 L 1.1828736 0.57774252 z M 1.97559 1.0428304 C 2.0067116 1.0953082 2.035088 1.1521265 2.0598226 1.2076782 C 2.0891763 1.2027506 2.1186114 1.2007964 2.1481893 1.2004435 L 2.1487061 1.2004435 L 2.1492229 1.2004435 C 2.1787435 1.2007968 2.208241 1.2027506 2.2375896 1.2076782 C 2.2623388 1.1521214 2.2907473 1.0953082 2.3218221 1.0428304 C 2.3996562 1.060206 2.4765259 1.0843733 2.5486817 1.1208618 C 2.5470238 1.1848724 2.5430554 1.2461468 2.534729 1.3084473 C 2.5626948 1.3264824 2.5922813 1.3421095 2.6184449 1.3632243 C 2.6450732 1.3837792 2.6718895 1.4032639 2.6959595 1.4273031 C 2.74406 1.3953309 2.7949401 1.3654547 2.8473715 1.3389364 C 2.9039057 1.4000662 2.9571663 1.4661194 3.0003337 1.5399577 C 2.9678293 1.5927612 2.9336094 1.6423296 2.8969808 1.6893026 L 2.8959473 1.6893026 L 2.8959473 2.1063314 L 2.8959473 2.1425049 C 2.8951224 2.1425131 2.8941808 2.1424281 2.8933635 2.1425049 L 2.6168946 2.1693767 C 2.6131706 2.1697397 2.6121834 2.1732324 2.6101766 2.1760946 C 2.6089864 2.1766601 2.6086878 2.1779682 2.6075928 2.1786784 C 2.6000361 2.1835793 2.5906905 2.1871816 2.5900228 2.1967652 L 2.5817546 2.3197551 L 2.3404257 2.3368083 L 2.3238892 2.2236369 C 2.3217354 2.2089618 2.3091996 2.1983155 2.2944336 2.1983155 L 2.0029785 2.1983155 C 1.988205 2.1983155 1.9756771 2.2089618 1.973523 2.2236369 L 1.9564698 2.3368083 L 1.7156576 2.3197551 L 1.7068726 2.1967652 C 1.7062102 2.1871813 1.696861 2.1835793 1.6893026 2.1786784 C 1.6882073 2.1779682 1.6879093 2.17666 1.6867188 2.1760946 C 1.6847119 2.1732318 1.6837248 2.1697378 1.6800008 2.1693767 L 1.4035319 2.1425049 C 1.4027146 2.1424316 1.4017731 2.14251 1.4009481 2.1425049 L 1.4009481 1.6893026 L 1.3999146 1.6893026 C 1.3632921 1.6423317 1.3295665 1.5927663 1.2970785 1.5399577 C 1.3402604 1.4661245 1.3929897 1.4000713 1.4495239 1.3389364 C 1.5019705 1.3654577 1.5528339 1.3953355 1.6009359 1.4273031 C 1.6250115 1.4032639 1.6523763 1.3837787 1.6789673 1.3632243 C 1.7051399 1.3421116 1.7346638 1.3264845 1.7626831 1.3084473 C 1.7543339 1.2461468 1.7503805 1.1848724 1.7487305 1.1208618 C 1.8208812 1.0843733 1.8977966 1.0602075 1.97559 1.0428304 z M 1.8329631 1.5911174 L 1.6608806 1.6376262 L 1.6143718 1.8097087 L 1.7404623 1.9363159 L 1.9130616 1.8903239 L 1.9590536 1.7177246 L 1.8329631 1.5911174 z M 2.5466146 1.5911174 L 2.3740153 1.6376262 L 2.3280233 1.8097087 L 2.4541138 1.9363159 L 2.6261963 1.8903239 L 2.6727051 1.7177246 L 2.5466146 1.5911174 z M 2.1440552 1.7880046 C 2.1185553 1.7906046 2.0990967 1.8123976 2.0990967 1.8386475 L 2.0990967 1.9885091 C 2.0990967 2.0165091 2.1212229 2.0386353 2.1492229 2.0386353 C 2.1772226 2.0386353 2.1998658 2.0165091 2.1998658 1.9885091 L 2.1998658 1.8386475 C 2.1998658 1.8106475 2.1773226 1.7880046 2.1492229 1.7880046 C 2.1472228 1.7880046 2.145572 1.7878326 2.144572 1.7880046 L 2.1440552 1.7880046 z M 3.0292725 2.6799398 L 2.5233602 2.7285157 L 2.5192261 2.7920777 L 2.390035 2.7920777 L 2.3828003 2.7481527 L 1.9140951 2.7481527 L 1.9073771 2.7920777 L 1.7797364 2.7920777 L 1.7756022 2.7285157 L 1.4040487 2.6913086 L 1.2676229 2.7011272 L 1.2676229 2.7920777 L 0.89141847 2.7920777 A 0.12771627 0.12771627 0 0 0 0.79891766 2.7502198 L 0.44545085 2.7502198 A 0.12771627 0.12771627 0 0 0 0.35191651 2.7920777 L 0.11317139 2.7920777 L 0.11317139 3.7625611 L 0.34984945 3.7625611 A 0.12771627 0.12771627 0 0 0 0.44545085 3.8064861 L 0.79891766 3.8064861 A 0.12771627 0.12771627 0 0 0 0.89348553 3.7625611 L 3.407544 3.7625611 A 0.12814732 0.12814732 0 0 0 3.5098633 3.8126872 L 3.8612631 3.8126872 A 0.12814732 0.12814732 0 0 0 3.9620321 3.7625611 L 4.1206788 3.7625611 L 4.1206788 2.7920777 L 3.9604818 2.7920777 A 0.12814732 0.12814732 0 0 0 3.8612631 2.7440186 L 3.5098633 2.7440186 A 0.12814732 0.12814732 0 0 0 3.4090943 2.7920777 L 3.0292725 2.7920777 L 3.0292725 2.6799398 z M 1.4009481 2.8246338 L 1.4014649 2.8246338 L 1.6505453 2.848405 L 1.6582967 2.9719117 C 1.6593967 2.9867717 1.671502 2.9987169 1.686202 2.9998169 L 1.9802409 3.0210043 C 1.9958409 3.0221443 2.0102803 3.0106558 2.0122803 2.9951661 L 2.0288168 2.8804444 L 2.2691122 2.8804444 L 2.2861654 2.9951661 C 2.2880904 3.0080896 2.29822 3.018167 2.3104533 3.0204875 C 2.3122009 3.020819 2.313796 3.0210043 2.315621 3.0210043 C 2.316741 3.0210043 2.317008 3.0210253 2.317688 3.0210043 L 2.6122437 2.9998169 C 2.6270437 2.9987569 2.6387622 2.9867717 2.6396322 2.9719117 L 2.6479004 2.8489218 L 2.8964641 2.8246338 C 2.8964641 2.8514938 2.8959473 2.8807456 2.8959473 2.8866456 C 2.8959473 3.1504724 2.5630599 3.2773697 2.1492229 3.2788697 L 2.1481893 3.2788697 C 1.7343454 3.2774087 1.4009481 3.1504724 1.4009481 2.8866456 C 1.4009481 2.8807856 1.4010481 2.8514836 1.4009481 2.8246338 z M 3.5098633 2.8732097 L 3.8612631 2.8732097 L 3.8612631 3.6834962 L 3.5098633 3.6834962 L 3.5098633 2.8732097 z M 0.44596762 2.876827 L 0.79788413 2.876827 L 0.79788413 3.6798788 L 0.44596762 3.6798788 L 0.44596762 2.876827 z "
       fill="#E0E0E0" />
  </g>
</svg>