<?xml version="1.0" encoding="UTF-8"?>
<svg xmlns="http://www.w3.org/2000/svg" xmlns:xlink="http://www.w3.org/1999/xlink" width="20" height="20" viewBox="0 0 20 20">
<path fill-rule="nonzero" fill="rgb(87.843137%, 87.843137%, 87.843137%)" fill-opacity="1" d="M 6.25 1.25 L 6.25 2.5 L 1.25 2.5 L 1.25 5 L 18.75 5 L 18.75 2.5 L 13.75 2.5 L 13.75 1.25 Z M 2.5 6.25 L 2.5 16.25 C 2.5 17.628906 3.621094 18.75 5 18.75 L 15 18.75 C 16.378906 18.75 17.5 17.628906 17.5 16.25 L 17.5 6.25 Z M 3.75 8.75 L 6.25 8.75 L 6.25 16.25 L 3.75 16.25 Z M 8.75 8.75 L 11.25 8.75 L 11.25 16.25 L 8.75 16.25 Z M 13.75 8.75 L 16.25 8.75 L 16.25 16.25 L 13.75 16.25 Z M 13.75 8.75 "/>
</svg>
