<?xml version="1.0" encoding="UTF-8" standalone="no"?>
<svg
   viewBox="0 0 16 16"
   version="1.1"
   id="svg6"
   sodipodi:docname="crystal-growth.svg"
   width="16"
   height="16"
   inkscape:version="1.1.1 (3bf5ae0d25, 2021-09-20)"
   xmlns:inkscape="http://www.inkscape.org/namespaces/inkscape"
   xmlns:sodipodi="http://sodipodi.sourceforge.net/DTD/sodipodi-0.dtd"
   xmlns="http://www.w3.org/2000/svg"
   xmlns:svg="http://www.w3.org/2000/svg">
  <defs
     id="defs10" />
  <sodipodi:namedview
     id="namedview8"
     pagecolor="#505050"
     bordercolor="#eeeeee"
     borderopacity="1"
     inkscape:pageshadow="0"
     inkscape:pageopacity="0"
     inkscape:pagecheckerboard="0"
     showgrid="false"
     inkscape:zoom="22.46875"
     inkscape:cx="8.7232267"
     inkscape:cy="13.08484"
     inkscape:window-width="1920"
     inkscape:window-height="1018"
     inkscape:window-x="-6"
     inkscape:window-y="-6"
     inkscape:window-maximized="1"
     inkscape:current-layer="svg6" />
  <g
     class=""
     id="g4"
     transform="matrix(0.03289036,0,0,0.03289036,-0.45591328,-0.43995217)">
    <path
       d="m 253.8,15.56 -79.9,84.11 2.3,58.83 50.6,36.2 31.9,182 10.8,-26.9 11.8,-235.4 18.7,1 -9.1,181 28.3,-70.8 8.2,-108 0.9,-17.93 z m 139,50.57 -46.6,50.77 -3.9,51.1 10.6,-26.2 30.4,-13.7 c 3.2,-20.6 6.3,-41.3 9.5,-61.97 z m 60.3,51.17 -85.7,38.4 -102.6,255.9 14.6,83.3 h 7.8 l 147.6,-293.1 16.7,8.4 -143.4,284.7 h 24.4 L 479.1,203.1 Z m -340.2,18.9 -54.11,99.1 69.11,259.6 h 93.6 l -51.1,-274.8 18.3,-3.4 51.8,278.2 h 19.9 L 209.7,205.5 Z m 358.3,260.4 -65.8,-5.2 -49.8,99.2 69.8,-36.7 z M 35.24,368.6 77.71,495.3 H 108.7 L 80.6,389.9 Z"
       fill="#ffffff"
       fill-opacity="1"
       id="path2" />
  </g>
</svg>
