<?xml version="1.0" encoding="UTF-8" standalone="no"?>
<svg
   viewBox="0 0 16 16"
   version="1.1"
   id="svg6"
   sodipodi:docname="school-bag.svg"
   width="16"
   height="16"
   inkscape:version="1.1.1 (3bf5ae0d25, 2021-09-20)"
   xmlns:inkscape="http://www.inkscape.org/namespaces/inkscape"
   xmlns:sodipodi="http://sodipodi.sourceforge.net/DTD/sodipodi-0.dtd"
   xmlns="http://www.w3.org/2000/svg"
   xmlns:svg="http://www.w3.org/2000/svg">
  <defs
     id="defs10" />
  <sodipodi:namedview
     id="namedview8"
     pagecolor="#505050"
     bordercolor="#eeeeee"
     borderopacity="1"
     inkscape:pageshadow="0"
     inkscape:pageopacity="0"
     inkscape:pagecheckerboard="0"
     showgrid="false"
     inkscape:zoom="15.887805"
     inkscape:cx="8.4970829"
     inkscape:cy="17.308873"
     inkscape:window-width="1920"
     inkscape:window-height="1018"
     inkscape:window-x="-6"
     inkscape:window-y="-6"
     inkscape:window-maximized="1"
     inkscape:current-layer="g4" />
  <g
     class=""
     id="g4">
    <path
       d="m 4.0057146,0.10248951 c -0.2826619,0.002678 -0.6124336,0.011442 -0.8816352,0.0656178 -0.164886,0.0329777 -0.2994868,0.0841254 -0.3634221,0.12988965 -0.040379,0.0269196 -0.053841,0.0410536 -0.06057,0.056196 L 3.4942314,2.345948 c 0,-0.00134 0.00335,-0.00301 0.00335,-0.00435 0.171616,-0.246319 0.3903422,-0.4512488 0.6931938,-0.4512488 h 0.7066515 z m 7.5645624,0 -0.891727,1.78783509 h 0.706651 c 0.306219,0 0.521581,0.2093044 0.693197,0.4593252 l 0.797508,-1.99545687 c -0.0067,-0.0151429 -0.02018,-0.0292769 -0.06057,-0.056196 -0.06393,-0.0457633 -0.198536,-0.0969124 -0.36342,-0.12988965 -0.2692,-0.0541768 -0.598972,-0.0622526 -0.881638,-0.0656178 z M 7.7879982,0.54162452 c -1.0498879,0 -2.1031391,0.55051758 -2.1031391,1.65155168 h 0.6057037 c 0,-1.39379114 2.9948674,-1.39379114 2.9948674,0 h 0.6057051 c 0,-1.1010341 -1.053254,-1.65155168 -2.1031371,-1.65155168 z M 4.1907904,2.4960283 c 0,0 -0.077395,0.020527 -0.1951709,0.1934883 C 3.8744785,2.8577678 3.736513,3.1437945 3.6052769,3.5139465 3.3428056,4.254251 3.090429,5.3344223 2.875068,6.5996698 2.451412,9.1133397 2.172788,12.377409 2.1690867,15.338626 c 0.045089,0.03029 0.1500798,0.08076 0.2954489,0.124506 0.2927565,0.09086 0.7436692,0.174981 1.2888024,0.242282 1.0902663,0.131235 2.5641449,0.198536 4.0346602,0.198536 1.4705124,0 2.9443908,-0.0673 4.0346588,-0.198536 0.545133,-0.0673 0.996044,-0.151426 1.288803,-0.242282 0.144696,-0.04374 0.249008,-0.09422 0.29612,-0.124506 C 13.404233,12.474995 13.124919,9.2142901 12.700924,6.6737006 12.485562,5.3949928 12.233188,4.2979961 11.970715,3.5408671 11.836117,3.1639847 11.701514,2.8712276 11.580376,2.6928818 11.459233,2.5168912 11.378474,2.4960283 11.385201,2.4960283 Z m 3.5972078,0.755447 c 0.7773163,0 1.5546374,0.1379655 2.1939896,0.4307225 0.6427182,0.2927565 1.1676652,0.7604942 1.3291822,1.4133081 l 0.0033,0.00335 1.053254,4.5865219 H 3.2082048 L 4.261456,5.0988559 4.264806,5.0955059 C 4.4263239,4.442692 4.9512669,3.9749543 5.5939857,3.6821978 6.2333393,3.3894408 7.010659,3.2514753 7.7879791,3.2514753 Z m 0,0.6057032 c -0.7032908,0 -1.4065796,0.1312361 -1.9449829,0.3768823 C 5.3079772,4.4797076 4.9580149,4.8195743 4.8503347,5.2402018 L 3.9686995,9.0796893 H 11.607295 L 10.725657,5.2402018 C 10.617979,4.8195743 10.268014,4.4797076 9.7329792,4.2340608 9.194573,3.9884146 8.4912832,3.8571785 7.7879982,3.8571785 Z M 5.6343842,5.4050879 H 9.9416084 V 6.0107916 H 7.0140423 v 0.895095 H 6.4083386 V 6.0107916 H 5.6343842 Z M 3.2856003,10.580489 H 3.891304 c 0,1.174391 0.1547905,2.035836 0.4172622,2.564145 0.2658365,0.524943 0.5821483,0.730209 1.0801712,0.730209 h 4.7985186 c 0.498022,0 0.814334,-0.205266 1.080169,-0.730209 0.262473,-0.528309 0.417263,-1.389754 0.417263,-2.564145 h 0.605705 c 0,1.224867 -0.148062,2.163707 -0.484562,2.833346 -0.336505,0.673004 -0.918651,1.066712 -1.618575,1.066712 H 5.3887374 c -0.6999241,0 -1.2820724,-0.393708 -1.6185745,-1.066712 -0.336502,-0.669639 -0.4845626,-1.608479 -0.4845626,-2.833346 z"
       fill="#ffffff"
       fill-opacity="1"
       id="path2"
       style="stroke-width:0.0336502" />
  </g>
</svg>
