<?xml version="1.0" encoding="UTF-8" standalone="no"?>
<svg
   viewBox="0 0 16 16"
   version="1.1"
   id="svg6"
   sodipodi:docname="switch-weapon.svg"
   width="16"
   height="16"
   inkscape:version="1.1.1 (3bf5ae0d25, 2021-09-20)"
   xmlns:inkscape="http://www.inkscape.org/namespaces/inkscape"
   xmlns:sodipodi="http://sodipodi.sourceforge.net/DTD/sodipodi-0.dtd"
   xmlns="http://www.w3.org/2000/svg"
   xmlns:svg="http://www.w3.org/2000/svg">
  <defs
     id="defs10" />
  <sodipodi:namedview
     id="namedview8"
     pagecolor="#505050"
     bordercolor="#eeeeee"
     borderopacity="1"
     inkscape:pageshadow="0"
     inkscape:pageopacity="0"
     inkscape:pagecheckerboard="0"
     showgrid="false"
     inkscape:zoom="11.234375"
     inkscape:cx="18.959666"
     inkscape:cy="16.378303"
     inkscape:window-width="1920"
     inkscape:window-height="1018"
     inkscape:window-x="-6"
     inkscape:window-y="-6"
     inkscape:window-maximized="1"
     inkscape:current-layer="g4" />
  <g
     class=""
     id="g4">
    <path
       d="M 2.6469635,0.78859521 1.6341089,2.8143045 v 2.7536974 c -0.021207,0.504339 0.1217638,0.884508 0.4365716,1.196942 0.108945,0.106571 0.2497954,0.215389 0.4147011,0.323701 L 2.6469635,2.8143045 2.81611,7.2875129 c 0.2461868,0.136102 0.5257344,0.268312 0.8249698,0.390708 0.00614,0.0026 0.012569,0.0049 0.018739,0.0074 V 2.8143024 Z m 6.8578476,0 c -0.580271,0 -1.160542,1.16057319 -1.160542,2.32114579 0,0.5565951 0.133666,1.1128739 0.336617,1.5414379 0.288347,0.04725 0.59942,0.112839 0.923818,0.195924 0.139109,-0.249193 0.4722439,-0.4498653 1.2717019,-0.5339642 V 2.2944882 C 10.106415,1.9247649 9.5048111,1.2063974 9.5048111,0.78859521 Z m 4.6422919,0 c 0,0.41780219 -0.601603,1.13616969 -1.371595,1.50586129 v 2.0187457 c 1.370835,0.1441417 1.371595,0.6307547 1.371595,1.1176217 0.580271,0 1.160542,-1.1605099 1.160542,-2.3210829 0,-1.1605726 -0.580271,-2.32114579 -1.160542,-2.32114579 z M 11.446137,1.5798878 v 3.8884751 a 11.704484,11.704484 0 0 1 0.759641,0.352853 V 1.5798878 Z m -4.0197666,2.308042 -1.8500417,1.9592411 1.8500417,1.850137 v -1.116451 h 0.2848653 c 1.0840704,0 2.8559333,0.38574 4.2858933,0.970758 0.715012,0.292461 1.34026,0.629552 1.75303,1.033301 0.206369,0.201938 0.364565,0.425716 0.427742,0.68526 0.02744,0.112743 0.02893,0.230962 0.01311,0.348612 0.251629,-0.608663 0.157464,-1.124269 -0.169181,-1.63402 -0.354752,-0.553588 -1.009057,-1.073309 -1.785916,-1.502759 -1.553624,-0.858837 -3.6067749,-1.35713 -4.5246743,-1.35713 H 7.4263704 Z M 1.2314992,6.1383659 c -0.25163137,0.608662 -0.1574673,1.124269 0.1691782,1.634019 0.354752,0.553589 1.0090565,1.07331 1.7859156,1.50276 1.5535927,0.8588371 3.6067436,1.3571301 4.5246427,1.3571301 H 7.996101 v 1.236949 L 9.8461431,9.9099829 7.996101,8.0598459 v 1.116451 H 7.7112357 c -1.0840706,0 -2.855933,-0.385739 -4.2858936,-0.970758 C 2.7103302,7.9130769 2.0850822,7.5759869 1.6723123,7.1722369 1.4659435,6.9702999 1.3077481,6.7465219 1.244571,6.4869779 1.2171312,6.3742339 1.215642,6.2560159 1.2314647,6.1383659 Z M 11.446137,7.9492229 V 11.64513 h 0.759641 V 8.2656779 c -0.135786,-0.06416 -0.277586,-0.126671 -0.424386,-0.186746 -0.109072,-0.04463 -0.221562,-0.08755 -0.335255,-0.129709 z M 1.6341089,8.8944059 V 10.206053 H 2.3674786 L 2.3954906,9.4657199 C 2.1213869,9.2886919 1.8646281,9.0987499 1.6341089,8.8944059 Z m 1.2759749,0.878874 0.01636,0.4328371 h 0.7333705 v -0.05625 C 3.4048285,10.033457 3.1537983,9.9080529 2.9109352,9.7738489 l -8.963e-4,-5.38e-4 z M 0.90611953,10.775847 v 0.616069 H 4.3878068 V 10.775815 H 0.90611953 Z M 2.013929,11.866691 v 2.532137 c -0.2532137,0 -0.8862475,1.012855 0.6330345,1.012855 1.5192813,0 0.8862475,-1.012855 0.6330338,-1.012855 v -2.532137 z m 9.432208,0.34817 v 2.97526 h 0.759641 v -2.97526 z"
       fill="#ffffff"
       fill-opacity="1"
       id="path2"
       style="stroke-width:0.0316517" />
  </g>
</svg>
