<?xml version="1.0" encoding="UTF-8" standalone="no"?>
<svg
   viewBox="0 0 16 16"
   version="1.1"
   id="svg6"
   sodipodi:docname="war-pick.svg"
   width="16"
   height="16"
   inkscape:version="1.1.1 (3bf5ae0d25, 2021-09-20)"
   xmlns:inkscape="http://www.inkscape.org/namespaces/inkscape"
   xmlns:sodipodi="http://sodipodi.sourceforge.net/DTD/sodipodi-0.dtd"
   xmlns="http://www.w3.org/2000/svg"
   xmlns:svg="http://www.w3.org/2000/svg">
  <defs
     id="defs10" />
  <sodipodi:namedview
     id="namedview8"
     pagecolor="#505050"
     bordercolor="#eeeeee"
     borderopacity="1"
     inkscape:pageshadow="0"
     inkscape:pageopacity="0"
     inkscape:pagecheckerboard="0"
     showgrid="false"
     inkscape:zoom="15.887805"
     inkscape:cx="12.840036"
     inkscape:cy="15.672397"
     inkscape:window-width="1920"
     inkscape:window-height="1018"
     inkscape:window-x="-6"
     inkscape:window-y="-6"
     inkscape:window-maximized="1"
     inkscape:current-layer="g4" />
  <g
     class=""
     id="g4">
    <path
       d="m 4.532677,0.99217526 c -0.0627,7.139e-4 -0.124158,0.00454 -0.185671,0.00809 1.276878,0.6851838 2.594773,1.7678832 3.626014,2.8725054 0.257594,0.2759175 0.367592,0.5581713 0.486961,0.8162114 0.07395,0.1597329 0.153872,0.317026 0.276542,0.4869311 L 9.648217,4.3914374 C 9.556988,4.241789 9.493154,4.0771189 9.468436,3.9040306 9.441096,3.7127086 9.471136,3.5089237 9.558836,3.3245923 8.579617,2.6096634 7.516727,1.9191258 6.502501,1.4796084 5.824933,1.1859928 5.177436,1.0083538 4.595826,0.99264856 c -0.02124,-5.953e-4 -0.04224,-7.14e-4 -0.06315,-4.765e-4 z m 6.736214,2.95240124 c -0.08403,0 -0.165444,0.01502 -0.2407,0.038462 l 0.859938,0.8599374 c 0.02344,-0.075259 0.03846,-0.1566389 0.03846,-0.240699 0,-0.1928988 -0.06883,-0.3785394 -0.17401,-0.4837183 -0.10515,-0.1051503 -0.29079,-0.1740103 -0.483689,-0.1740103 z m -0.68676,0.349627 -0.651125,0.5602829 c 0.295995,-0.075347 0.624205,0.00175 0.854047,0.2316264 0.229872,0.2298719 0.306972,0.5580518 0.231657,0.8540777 l 0.560253,-0.6511254 z m -0.428035,1.0642874 c -0.09081,0 -0.181566,0.035363 -0.252389,0.1061909 -0.141648,0.1416173 -0.141648,0.3631306 0,0.5047774 0.141646,0.1416476 0.36319,0.1416476 0.504778,0 0.141676,-0.1416468 0.141676,-0.3631601 0,-0.5047774 -0.0708,-0.070821 -0.161606,-0.1061909 -0.252389,-0.1061909 z M 9.33366,5.3684609 9.040787,5.6204038 8.881591,6.9895808 10.250768,6.8303842 10.502651,6.5376602 C 10.177743,6.6741298 9.786086,6.6110371 9.523108,6.3480918 9.2601,6.0850836 9.197129,5.6933975 9.33363,5.368459 Z m 2.146065,0.8544944 -0.784473,0.9116939 c 0.169906,0.1226698 0.327199,0.2026247 0.48696,0.2765422 0.258012,0.1193678 0.540265,0.2293658 0.816212,0.4869308 1.104622,1.03127 2.187293,2.3491958 2.872506,3.6260438 0.0373,-0.643629 -0.142867,-1.378993 -0.479346,-2.1554948 C 13.952067,8.3544432 13.2615,7.2915834 12.546601,6.3123378 12.362239,6.4000864 12.158454,6.4300698 11.967162,6.4027637 11.794045,6.3780146 11.629404,6.3141817 11.479725,6.2229534 Z M 8.404803,6.454671 7.560095,7.2455397 8.625632,8.3111352 9.416501,7.4663988 8.271634,7.5995682 Z M 7.169034,7.6116742 6.82143,7.9371182 7.934054,9.0497422 8.259497,8.7021382 Z M 6.430398,8.3033132 3.7365428,10.825626 5.045545,12.134658 7.567859,9.4407742 Z M 3.3454213,11.191762 2.6937015,11.801987 4.0691849,13.17747 4.67944,12.52575 Z m -0.8355453,1.183566 -0.1682398,0.504807 0.6493996,0.6494 0.5047782,-0.168239 z M 1.9509908,13.246717 1.4009996,13.53483 a 3.157644,3.157644 0 0 0 -0.08168,0.406797 c -0.018088,0.135282 -0.025347,0.276334 -0.013952,0.38431 0.011394,0.107975 0.044502,0.170589 0.056869,0.182993 0.012406,0.01241 0.075044,0.04551 0.1830231,0.05688 0.1079757,0.01139 0.2490273,0.0041 0.3843092,-0.01395 a 3.1576143,3.1576143 0 0 0 0.4067674,-0.08168 l 0.2881136,-0.549991 z"
       fill="#ffffff"
       fill-opacity="1"
       id="path2"
       style="stroke-width:0.0297453" />
  </g>
</svg>
